<svg xmlns="http://www.w3.org/2000/svg" viewBox="0 0 1024 256">
  <title>Hyse Comics logo</title>
  <path fill="#9ea3b0" d="M304.7 167.8h-17.1V82.32h17.1v34.2h34.14v-34.2h17.1v85.46h-17.1v-34.15H304.7zm79.92 24.31v-16.39l9.06.12q2.38 0 4.6-.78 2.2-.77 4.04-2.14 1.9-1.37 3.34-3.28 1.43-1.85 2.32-4.05-2.68 1.13-5.48 2.26-2.74 1.14-5.55 1.14-5.9 0-11.08-2.1-5.19-2.08-9.12-5.9-3.87-3.87-6.14-9.35-2.2-5.54-2.2-12.4v-35.28h16.2v35.28q0 3.4.96 5.96 1.01 2.5 2.68 4.24 1.67 1.67 3.88 2.5 2.26.83 4.82.83 2.5 0 4.71-1.13 2.27-1.19 3.94-3.1 1.66-1.9 2.62-4.29.95-2.44.95-5v-35.29h16.4v55.79q-.07 6.73-2.63 12.63t-7.03 10.31q-4.4 4.41-10.3 6.98-5.9 2.56-12.65 2.56zM473 167.79h-37.19v-16.2h37.2q1.66 0 2.85-1.2t1.2-2.86q0-1.73-1.2-2.27-1.19-.53-2.86-.53h-16.92q-4.23 0-7.93-1.61t-6.44-4.35q-2.74-2.8-4.35-6.5-1.55-3.7-1.55-7.93t1.55-7.92q1.61-3.7 4.35-6.44t6.44-4.29q3.7-1.6 7.93-1.6h32.96v16.2h-32.97q-1.67 0-2.86 1.2-1.2 1.19-1.2 2.85 0 1.73 1.2 2.98 1.2 1.2 2.86 1.2H473q4.17 0 7.87 1.43 3.7 1.37 6.44 3.87t4.35 6.02 1.6 7.69q0 4.23-1.6 7.93-1.6 3.63-4.35 6.43-2.74 2.74-6.44 4.35-3.7 1.55-7.87 1.55zm54.3-15.61q.95.3 1.9.42.96.05 1.91.05 2.4 0 4.6-.65 2.2-.66 4.1-1.85 1.97-1.25 3.46-2.98 1.55-1.79 2.5-3.93l11.92 11.98q-2.26 3.22-5.24 5.78-2.92 2.56-6.38 4.35-3.4 1.79-7.2 2.68-3.76.96-7.76.96-6.73 0-12.7-2.5-5.9-2.51-10.36-6.98-4.4-4.47-6.98-10.61-2.56-6.2-2.56-13.59 0-7.57 2.56-13.83t6.98-10.66q4.47-4.41 10.37-6.86 5.96-2.44 12.7-2.44 4 0 7.8.95 3.81.96 7.21 2.74 3.46 1.8 6.44 4.41 2.98 2.57 5.24 5.79zm8.34-33.56q-1.13-.41-2.26-.53-1.08-.12-2.27-.12-3.33 0-6.3 1.25-2.94 1.2-5.14 3.46-2.15 2.26-3.4 5.48-1.25 3.16-1.25 7.15 0 .9.06 2.03.12 1.13.3 2.32.24 1.13.53 2.2t.78 1.91zm134.46 40.41q-5.96 5.13-13.35 7.87-7.4 2.74-15.32 2.74-6.08 0-11.74-1.6-5.6-1.56-10.55-4.42-4.89-2.92-8.94-6.97t-6.97-8.94q-2.86-4.95-4.47-10.55-1.55-5.66-1.55-11.74t1.55-11.74q1.6-5.67 4.47-10.55 2.92-4.95 6.97-9t8.94-6.92q4.95-2.92 10.55-4.47 5.66-1.6 11.74-1.6 7.93 0 15.32 2.74 7.4 2.68 13.35 7.86l-9.06 14.9q-3.76-4.05-8.88-6.2-5.13-2.2-10.73-2.2-5.66 0-10.6 2.15-4.95 2.14-8.65 5.84-3.7 3.63-5.84 8.64-2.15 4.95-2.15 10.55t2.15 10.55q2.15 4.88 5.84 8.58 3.7 3.7 8.64 5.84 4.95 2.15 10.61 2.15 5.6 0 10.73-2.15 5.12-2.2 8.88-6.26zm67.64-23.72q0 7.15-2.56 13.35-2.56 6.14-6.97 10.67-4.4 4.47-10.37 7.1-5.9 2.56-12.7 2.56-6.73 0-12.7-2.57-5.9-2.62-10.36-7.09-4.4-4.53-6.97-10.67-2.57-6.2-2.57-13.35 0-7.27 2.57-13.47t6.97-10.67q4.47-4.53 10.37-7.09 5.96-2.56 12.7-2.56 6.8 0 12.7 2.44 5.95 2.39 10.36 6.86 4.4 4.4 6.97 10.66 2.56 6.2 2.56 13.83m-16.39 0q0-3.93-1.3-7.1-1.26-3.2-3.46-5.47-2.2-2.33-5.19-3.52-2.92-1.25-6.26-1.25t-6.3 1.25q-2.93 1.2-5.14 3.52-2.15 2.26-3.4 5.48-1.25 3.16-1.25 7.1 0 3.69 1.25 6.85t3.4 5.48q2.2 2.32 5.13 3.7 2.98 1.3 6.31 1.3 3.34 0 6.26-1.25 2.98-1.25 5.2-3.51 2.2-2.27 3.44-5.49 1.31-3.21 1.31-7.09m106.57 32.48h-16.2v-40.52q0-1.67-.67-3.16-.6-1.5-1.73-2.63t-2.62-1.72q-1.49-.66-3.16-.66t-3.16.66q-1.43.6-2.56 1.72-1.07 1.14-1.73 2.63-.6 1.49-.6 3.16v40.52h-16.26v-40.52q0-1.67-.66-3.16-.6-1.5-1.73-2.63t-2.62-1.72q-1.5-.66-3.16-.66t-3.16.66q-1.43.6-2.56 1.72-1.07 1.14-1.73 2.63-.6 1.49-.6 3.16v40.52h-16.27v-63.83h3.94l4.4 4.89q3.4-2.86 7.46-4.41 4.11-1.61 8.52-1.61 4.47 0 8.7 1.67 4.3 1.67 7.51 5.78 1.5-2.03 3.4-3.46t4-2.32q2.14-.9 4.4-1.25 2.27-.42 4.47-.42 5.07 0 9.48 1.9 4.47 1.91 7.75 5.25 3.33 3.28 5.24 7.75 1.9 4.47 1.9 9.54zm31.05-81.17q0 2.26-.9 4.23-.83 1.97-2.32 3.46-1.49 1.43-3.5 2.32-1.98.84-4.25.84-2.26 0-4.29-.84-1.96-.9-3.45-2.32-1.43-1.5-2.33-3.46-.83-1.97-.83-4.23 0-2.2.83-4.17.9-2.03 2.33-3.46 1.5-1.49 3.45-2.32 2.03-.9 4.3-.9 2.26 0 4.23.9 2.02.83 3.51 2.32 1.5 1.43 2.33 3.46.9 1.96.9 4.17m-2.8 81.17h-16.4v-63.83h16.4zm68.18-51.13-11.92 11.98q-.9-2.5-2.44-4.47-1.55-2.03-3.52-3.4-1.9-1.37-4.17-2.09t-4.65-.71q-3.34 0-6.32 1.37-2.92 1.37-5.12 3.87-2.15 2.45-3.4 5.84-1.25 3.4-1.25 7.51 0 3.34 1.25 6.26t3.4 5.13q2.2 2.2 5.12 3.45 2.98 1.25 6.32 1.25 2.38 0 4.6-.65 2.2-.66 4.1-1.85 1.97-1.25 3.46-2.98 1.55-1.79 2.5-3.93l11.92 11.98q-2.26 3.22-5.24 5.78-2.92 2.56-6.38 4.35-3.4 1.79-7.2 2.68-3.77.96-7.76.96-6.73 0-12.7-2.5-5.9-2.57-10.36-6.98-4.42-4.41-6.98-10.31t-2.56-12.64q0-7.33 2.56-13.7 2.56-6.38 6.98-11.1 4.47-4.76 10.37-7.5 5.96-2.74 12.7-2.74 4 0 7.8 1.01 3.87 1.01 7.33 2.98 3.51 1.9 6.44 4.71 2.98 2.8 5.12 6.44m42.97 51.13h-37.19v-16.2h37.2q1.66 0 2.85-1.2t1.2-2.86q0-1.73-1.2-2.27-1.19-.53-2.86-.53H950.4q-4.24 0-7.93-1.61-3.7-1.61-6.44-4.35-2.74-2.8-4.35-6.5-1.55-3.7-1.55-7.93t1.55-7.92q1.61-3.7 4.35-6.44t6.44-4.29q3.7-1.6 7.93-1.6h32.95v16.2H950.4q-1.67 0-2.86 1.2-1.2 1.19-1.2 2.85 0 1.73 1.2 2.98 1.2 1.2 2.86 1.2h16.92q4.17 0 7.87 1.43 3.7 1.37 6.44 3.87t4.35 6.02 1.6 7.69q0 4.23-1.6 7.93-1.6 3.63-4.35 6.43-2.75 2.74-6.44 4.35-3.7 1.55-7.87 1.55"/>
  <path fill="#157f1f" d="M199.34 35.46c-1.12.6-1.38 1.81-1.8 2.85-1.97 4.83-4.92 8.7-9.9 10.75-.88.36-1.73.82-2.6 1.22-.64.3-1.37.57-1.37 1.37-.01.82.72 1.1 1.38 1.33 6.17 2.04 10.45 6.11 13.04 12.05.31.7.59 1.58 1.58 1.77.17-.12.39-.2.49-.37q.5-.78.9-1.62c2.56-5.55 6.5-9.61 12.42-11.57.8-.27 1.93-.5 1.96-1.57.04-1.11-1.1-1.3-1.9-1.6-6.16-2.3-10.47-6.4-12.7-12.98-.35-.65-.55-1.43-1.5-1.63m-45.82 13.21q-15.61-.12-30.96 2.84c-23.94 4.63-45.8 13.78-64.23 30.1-8.4 7.45-15.3 16.1-19.2 26.75-5.26 14.3-3 27.19 7.96 38.17 5.75 5.76 12.7 9.62 20.17 12.6 11.75 4.66 24.08 6.21 36.59 6.5 13.68.31 27.17-1.4 40.52-4.3 4.1-.88 8.18-1.94 12.26-2.92-1.36-.16-2.62.17-3.9.32-8.13.93-16.23 2.04-24.43 2.36-13.48.53-26.83-.3-39.94-3.49-11.89-2.89-23.15-7.31-32.42-15.6-6.74-6.03-11.4-13.27-10.99-22.8.25-5.58 2.36-10.6 5.13-15.33 5.86-10.05 14.38-17.49 23.96-23.8C89.3 70.03 106.25 64.45 124.1 61.3c.43-.08.94-.28 1.4.48l-12.8 4.65a121 121 0 0 0-29.53 16.32c-7.6 5.78-14.13 12.52-18.11 21.35-3.06 6.79-3.77 13.76-.74 20.8 3.26 7.59 9.28 12.5 16.26 16.4 13.46 7.53 28.24 9.78 43.35 10.29a137 137 0 0 0 31.57-2.84c20.71-4.14 39.98-11.68 56.9-24.57 7.6-5.78 14.1-12.55 17.95-21.47 2.55-5.9 3.25-11.99.8-18.06-3.99-9.94-12.09-15.56-21.43-19.76-1.08-.49-1.62.18-2.14 1.01-1.13 1.8-2.2 3.67-3.5 5.35-2.22 2.85-5.9 3-8.52.52a11 11 0 0 1-2.63-3.68c-2.04-4.81-5.76-7.76-10.4-9.79-1.7-.75-3.38-1.56-4.5-3.17-.43-.63-1.08-.77-1.8-.77-.71 0-1.47.2-2.42-.4.56-.13.8-.24 1.05-.24 1.06 0 2.27.42 2.33-1.4.06-1.6-.99-1.83-2.1-1.95-7.17-.78-14.36-1.64-21.58-1.7m64.26 10.36c-.86.06-1.52.5-2.68 1.52q1.32.44 2.56.9c9.4 3.47 18.08 8.12 24.87 15.7 5.8 6.46 7.63 13.85 4.87 22.2a44 44 0 0 1-5.83 11.56c-5.63 8.07-13 14.35-20.98 20.4-8.39 5.97-17.35 10.95-26.51 15.6a140 140 0 0 0 21.63-8.48c11.88-5.83 22.97-12.78 31.57-23.1 5.04-6.06 8.64-12.81 9.09-20.82.54-9.72-3.83-17.27-11.1-23.29-7.47-6.19-16.24-9.68-25.58-11.93a7 7 0 0 0-1.91-.26M146.09 65c2.2-.08 3.22 1.42 3.97 3.3 2.5 6.25 5.14 12.46 7.63 18.73.72 1.81 1.7 2.59 3.77 2.74 7.06.52 14.1 1.31 21.15 2.03 1.7.18 2.74 1.26 3.19 2.84.5 1.75-.37 3.13-1.65 4.16-3.3 2.69-6.7 5.29-10.17 8.01-2.14 1.73-4.1 3.48-6.23 5-1.54 1.1-1.85 2.38-1.4 4.1q2.46 9.58 4.9 19.18l.51 2c.46 1.65-.12 3-1.38 4.03-1.37 1.12-2.83.89-4.21-.01-3.63-2.38-7.23-4.8-10.86-7.17-2.54-1.65-5.13-3.22-7.64-4.92-.95-.64-1.68-.58-2.6.03-5.88 3.84-11.8 7.62-17.65 11.48-1.65 1.08-3.27 1.97-5.1.61-1.86-1.38-1.6-3.25-1.06-5.24 1.79-6.7 3.43-13.45 5.24-20.16.47-1.73.02-2.8-1.36-3.88-5.38-4.18-10.68-8.47-16.02-12.7-.88-.7-1.7-1.41-2.07-2.5a3.58 3.58 0 0 1 3.03-4.85c6.98-.74 13.95-1.52 20.94-2.03 2.22-.17 3.32-1.01 4.08-2.99 2.37-6.16 4.9-12.26 7.3-18.42.7-1.79 1.6-3.3 3.7-3.37m99.5 62.32c-.28.04-.52.01-.66.12q-.56.44-1.08.95a117 117 0 0 1-16.15 12.48c-18.56 11.74-38.87 19.3-59.94 25.03a228 228 0 0 1-43.04 7.36c-7.96.6-15.94.83-24.3.23-5.38-.04-10.69-1.17-16.1-1.45.05 1.16.77 1.28 1.24 1.6 4.22 2.87 8.7 5.3 13.2 7.7 2.2 1.17 3.03 2.79 2.44 5.1-2.62 10.18-5.6 20.2-13.4 27.91-1.23 1.23-1.8 2.83-.87 4.53.96 1.73 2.6 1.83 4.32 1.55 3.3-.53 6.35-1.8 9.37-3.14 12.1-5.35 22.7-12.95 32.05-22.23a10.8 10.8 0 0 1 8.48-3.3c9.71.23 19.39-.17 29-1.69 17.81-2.8 34.3-8.93 48.95-19.6 13.77-10.01 23.21-22.93 26.4-39.96.18-1.02.7-2.09.08-3.19"/>
</svg>
