<svg xmlns="http://www.w3.org/2000/svg" viewBox="0 0 256 256">
  <path fill="#23835d" d="M122.21 34.1c-3.02 0-5.53.06-7.05.23-7.36.8-16.96 2.26-21.73 3.31-25.97 5.74-49.58 21.1-62.59 40.68-14.19 21.38-16.63 42.64-7.27 63.33 7 15.5 16.12 25.94 33.19 38.07 5.9 4.2 5.87 4.08 2.94 12.72-3.8 11.21-7.43 17.7-12.38 22.1-2.72 2.44-3.33 5.1-1.5 6.6 2.69 2.24 14.9-.73 26.02-6.32 6.51-3.27 16.21-9.72 22.8-15.15 4.31-3.56 5.03-3.95 6.8-3.63 4.73.84 21.57 2.1 28.2 2.1 36.93 0 71.23-13.91 90.37-36.66 12.7-15.1 17.99-28.72 17.99-46.34 0-18.34-6.26-33.47-19.56-47.3-15.86-16.49-39.34-27.62-67.66-32.09-5.72-.9-19.48-1.62-28.57-1.64zm5.36 23.66c13.66 0 13.87.01 15.5 1.41l1.64 1.42-1.3 11.1-3.74 31.94c-2.98 25.5-2.83 24.56-4.26 26-1.01 1-2.04 1.17-7.54 1.17-5.8 0-6.48-.12-7.71-1.36-1.25-1.26-1.62-3.72-5.12-33.65-2.07-17.77-3.76-33.05-3.75-33.96 0-.91.55-2.2 1.22-2.87 1.14-1.13 2.01-1.2 15.06-1.2zm-.37 85.77c2.2-.07 4.41.12 5.64.58a15.9 15.9 0 0 1 10.29 13.41c.43 5.38-.58 8.42-3.94 11.89-2.12 2.18-3.67 3.17-6.12 3.88-4.05 1.2-5.65 1.21-9.44.08-11.02-3.29-14.8-17.63-6.74-25.53 1.41-1.37 3.51-2.9 4.67-3.4 1.23-.54 3.44-.85 5.64-.91z"/>
</svg>
