<svg xmlns="http://www.w3.org/2000/svg" viewBox="0 0 1024 256">
  <path fill="#7f8c8d" d="M84 177.45H62V67.56h22v43.99h43.9V67.56h22v109.89h-22v-43.91H84Zm102.75 31.26v-21.07l11.65.15q3.06 0 5.9-1 2.83-.99 5.21-2.75 2.45-1.76 4.3-4.22 1.83-2.37 2.98-5.2-3.45 1.45-7.05 2.9-3.53 1.46-7.13 1.46-7.58 0-14.25-2.68t-11.72-7.59q-4.98-4.98-7.9-12.03-2.83-7.12-2.83-15.94V95.38h20.84v45.36q0 4.37 1.23 7.67 1.3 3.21 3.45 5.44 2.14 2.14 4.98 3.22 2.9 1.07 6.2 1.07 3.22 0 6.06-1.46 2.9-1.53 5.05-3.98t3.38-5.52q1.22-3.14 1.22-6.44V95.38h21.07v71.72q-.07 8.66-3.37 16.25-3.3 7.58-9.04 13.26-5.67 5.67-13.26 8.96-7.58 3.3-16.24 3.3zm113.64-31.26h-47.82V156.6h47.82q2.15 0 3.68-1.54 1.53-1.53 1.53-3.68 0-2.22-1.53-2.9-1.53-.7-3.68-.7h-21.76q-5.44 0-10.2-2.07-4.74-2.06-8.27-5.59-3.52-3.6-5.6-8.35-1.99-4.75-1.99-10.2 0-5.43 2-10.19 2.07-4.75 5.6-8.27 3.52-3.53 8.27-5.52 4.75-2.07 10.19-2.07H321v20.85h-42.37q-2.15 0-3.68 1.53-1.53 1.53-1.53 3.68 0 2.22 1.53 3.83 1.53 1.53 3.68 1.53h21.76q5.36 0 10.12 1.84 4.75 1.76 8.27 4.98 3.53 3.22 5.6 7.74 2.06 4.52 2.06 9.88 0 5.45-2.06 10.2-2.07 4.67-5.6 8.27-3.52 3.53-8.27 5.6-4.76 1.99-10.12 1.99zm69.8-20.08q1.24.38 2.46.54 1.23.07 2.45.07 3.07 0 5.9-.84 2.84-.84 5.3-2.37 2.52-1.61 4.44-3.84 1.99-2.3 3.21-5.05l15.33 15.4q-2.91 4.14-6.74 7.43-3.76 3.3-8.2 5.6-4.37 2.3-9.27 3.44-4.83 1.23-9.97 1.23-8.66 0-16.32-3.22-7.58-3.22-13.33-8.96-5.67-5.75-8.97-13.64-3.3-7.97-3.3-17.47 0-9.74 3.3-17.78 3.3-8.05 8.97-13.72 5.75-5.67 13.33-8.81 7.66-3.14 16.32-3.14 5.14 0 10.04 1.22 4.9 1.23 9.27 3.53 4.45 2.3 8.28 5.67 3.83 3.3 6.74 7.43zm10.74-43.14q-1.46-.54-2.91-.69-1.38-.15-2.92-.15-4.29 0-8.12 1.6-3.75 1.54-6.59 4.45-2.76 2.91-4.37 7.05-1.6 4.06-1.6 9.2 0 1.15.07 2.6.15 1.46.38 2.99.31 1.46.7 2.83.38 1.38.99 2.46zm172.87 51.95q-7.66 6.6-17.16 10.12-9.5 3.52-19.7 3.52-7.81 0-15.1-2.07-7.2-1.99-13.56-5.67-6.28-3.75-11.5-8.96-5.2-5.21-8.96-11.5-3.67-6.36-5.74-13.56-2-7.28-2-15.1 0-7.81 2-15.09 2.07-7.28 5.74-13.56 3.76-6.36 8.97-11.57 5.21-5.22 11.5-8.9 6.35-3.75 13.56-5.74 7.28-2.07 15.1-2.07 10.18 0 19.69 3.53 9.5 3.44 17.16 10.11l-11.65 19.16q-4.82-5.21-11.41-7.97-6.6-2.84-13.8-2.84-7.28 0-13.64 2.76t-11.1 7.51q-4.76 4.68-7.52 11.11-2.76 6.36-2.76 13.57 0 7.2 2.76 13.56 2.76 6.28 7.51 11.03 4.75 4.75 11.11 7.51 6.36 2.76 13.64 2.76 7.2 0 13.8-2.76 6.59-2.83 11.41-8.04zm86.97-30.5q0 9.2-3.3 17.17-3.29 7.9-8.96 13.72-5.67 5.74-13.33 9.12-7.59 3.3-16.32 3.3-8.66 0-16.32-3.3-7.59-3.38-13.34-9.12-5.67-5.83-8.96-13.72-3.3-7.97-3.3-17.16 0-9.35 3.3-17.32 3.3-7.97 8.96-13.72 5.75-5.82 13.34-9.12 7.66-3.3 16.32-3.3 8.73 0 16.32 3.15 7.66 3.06 13.33 8.81 5.67 5.67 8.97 13.72 3.3 7.97 3.3 17.78zm-21.07 0q0-5.05-1.68-9.11-1.61-4.14-4.45-7.05-2.83-3-6.67-4.52-3.75-1.61-8.04-1.61-4.3 0-8.12 1.6-3.76 1.54-6.6 4.53-2.75 2.9-4.36 7.05-1.61 4.06-1.61 9.12 0 4.75 1.6 8.8 1.62 4.07 4.38 7.06 2.83 2.99 6.59 4.75 3.83 1.68 8.12 1.68 4.29 0 8.04-1.6 3.84-1.61 6.67-4.53 2.84-2.9 4.45-7.05 1.68-4.13 1.68-9.11zm137.01 41.77h-20.84v-52.1q0-2.15-.84-4.07-.77-1.92-2.23-3.37-1.45-1.46-3.37-2.22-1.91-.85-4.06-.85-2.14 0-4.06.85-1.84.76-3.3 2.22-1.37 1.45-2.22 3.37-.76 1.92-.76 4.06v52.1H694.1v-52.1q0-2.14-.85-4.06-.76-1.92-2.22-3.37-1.45-1.46-3.37-2.22-1.92-.85-4.06-.85-2.15 0-4.06.85-1.84.76-3.3 2.22-1.38 1.45-2.22 3.37-.77 1.92-.77 4.06v52.1h-20.92V95.39h5.06l5.67 6.28q4.37-3.68 9.58-5.67 5.29-2.07 10.96-2.07 5.75 0 11.19 2.15 5.51 2.14 9.65 7.43 1.92-2.6 4.37-4.44 2.45-1.84 5.13-3 2.76-1.14 5.67-1.6 2.92-.54 5.75-.54 6.52 0 12.19 2.46 5.74 2.45 9.96 6.74 4.29 4.21 6.74 9.96 2.45 5.75 2.45 12.26zm39.93-104.37q0 2.91-1.15 5.44-1.08 2.53-3 4.45-1.9 1.83-4.51 2.98-2.53 1.08-5.44 1.08-2.92 0-5.52-1.08-2.53-1.15-4.45-2.98-1.83-1.92-2.98-4.45-1.08-2.53-1.08-5.44 0-2.83 1.08-5.36 1.15-2.6 2.98-4.45 1.92-1.91 4.45-2.99 2.6-1.15 5.52-1.15 2.9 0 5.44 1.15 2.6 1.08 4.52 3 1.91 1.83 2.99 4.44 1.15 2.53 1.15 5.36zm-3.6 104.37h-21.08V95.38h21.07zm87.66-65.75-15.33 15.4q-1.15-3.21-3.14-5.74-2-2.6-4.52-4.37-2.45-1.76-5.37-2.68-2.9-.92-5.97-.92-4.3 0-8.12 1.76-3.76 1.76-6.6 4.98-2.75 3.14-4.36 7.51-1.61 4.37-1.61 9.66 0 4.29 1.6 8.04 1.62 3.76 4.38 6.6 2.83 2.83 6.59 4.44 3.83 1.6 8.12 1.6 3.06 0 5.9-.84 2.83-.84 5.29-2.37 2.52-1.61 4.44-3.84 2-2.3 3.22-5.05l15.32 15.4q-2.9 4.14-6.74 7.43-3.75 3.3-8.2 5.6-4.37 2.3-9.27 3.44-4.83 1.23-9.96 1.23-8.66 0-16.32-3.22-7.59-3.3-13.34-8.96-5.67-5.67-8.96-13.26-3.3-7.59-3.3-16.24 0-9.43 3.3-17.63t8.96-14.25q5.75-6.13 13.34-9.66 7.66-3.52 16.32-3.52 5.13 0 10.04 1.3 4.98 1.3 9.42 3.83 4.52 2.45 8.28 6.06 3.83 3.6 6.59 8.27zm55.25 65.75h-47.82V156.6h47.82q2.14 0 3.67-1.54 1.54-1.53 1.54-3.68 0-2.22-1.54-2.9-1.53-.7-3.67-.7h-21.77q-5.44 0-10.19-2.07-4.75-2.06-8.27-5.59-3.53-3.6-5.6-8.35-1.99-4.75-1.99-10.2 0-5.43 2-10.19 2.06-4.75 5.59-8.27 3.52-3.53 8.27-5.52 4.75-2.07 10.2-2.07h42.37v20.85h-42.38q-2.14 0-3.67 1.53-1.54 1.53-1.54 3.68 0 2.22 1.54 3.83 1.53 1.53 3.67 1.53h21.77q5.36 0 10.11 1.84 4.75 1.76 8.28 4.98 3.52 3.22 5.6 7.74 2.06 4.52 2.06 9.88 0 5.45-2.07 10.2-2.07 4.67-5.6 8.27-3.52 3.53-8.27 5.6-4.75 1.99-10.11 1.99z" />
</svg>
