<svg xmlns="http://www.w3.org/2000/svg" viewBox="0 0 80 80">
  <title>Hyse Comics logomark</title>
  <path fill="#157f1f" d="M57.32 9.72c-.36.19-.45.59-.59.93a6 6 0 0 1-3.24 3.51q-.43.2-.85.4c-.2.1-.45.2-.45.45 0 .27.24.36.45.44q3.01 1.02 4.27 3.94c.1.23.2.52.52.58.05-.04.13-.07.16-.12l.3-.53a6.7 6.7 0 0 1 4.06-3.79c.26-.08.63-.16.64-.51.01-.37-.36-.43-.62-.52a6.6 6.6 0 0 1-4.16-4.25c-.11-.21-.18-.47-.49-.53m-15 4.32q-5.1-.04-10.13.93c-7.83 1.51-14.98 4.5-21.02 9.85-2.75 2.44-5 5.27-6.28 8.75-1.72 4.68-.98 8.9 2.6 12.5a19 19 0 0 0 6.6 4.12c3.85 1.52 7.88 2.03 11.98 2.12 4.47.1 8.9-.45 13.26-1.4 1.34-.29 2.68-.64 4.01-.96-.44-.05-.86.06-1.28.1-2.66.31-5.3.68-7.99.78-4.41.17-8.78-.1-13.07-1.14-3.9-.95-7.58-2.4-10.6-5.1-2.22-1.98-3.74-4.35-3.6-7.47a11 11 0 0 1 1.67-5.02c1.92-3.29 4.7-5.72 7.84-7.78 5-3.3 10.55-5.12 16.39-6.15.14-.02.3-.1.46.16l-4.19 1.52a40 40 0 0 0-9.67 5.34c-2.49 1.9-4.62 4.1-5.92 6.99-1 2.22-1.23 4.5-.24 6.8 1.06 2.49 3.03 4.1 5.32 5.37 4.4 2.47 9.24 3.2 14.18 3.37 3.48.12 6.92-.25 10.34-.93 6.78-1.35 13.08-3.82 18.62-8.04 2.48-1.9 4.61-4.1 5.87-7.03a7.4 7.4 0 0 0 .27-5.9c-1.31-3.26-3.96-5.1-7.02-6.47-.35-.16-.53.05-.7.33-.37.59-.72 1.2-1.15 1.75-.72.93-1.93.98-2.78.17a4 4 0 0 1-.86-1.2 6 6 0 0 0-3.4-3.21 3 3 0 0 1-1.48-1.04c-.14-.2-.35-.25-.6-.25-.22 0-.47.06-.78-.13.18-.05.26-.08.34-.08.35 0 .74.14.77-.46.01-.52-.33-.6-.7-.64-2.34-.25-4.7-.53-7.06-.55m21.03 3.39c-.28.02-.5.16-.87.5l.84.29c3.07 1.13 5.91 2.66 8.14 5.14a7 7 0 0 1 1.6 7.26 15 15 0 0 1-1.92 3.79c-1.84 2.64-4.25 4.7-6.87 6.68a68 68 0 0 1-8.67 5.1 46 46 0 0 0 7.08-2.78c3.89-1.9 7.52-4.18 10.33-7.56 1.65-1.98 2.83-4.19 2.98-6.81.17-3.18-1.26-5.65-3.64-7.62-2.44-2.03-5.31-3.17-8.37-3.9q-.38-.1-.63-.1M39.9 19.38c.72-.03 1.06.46 1.3 1.08.82 2.04 1.69 4.08 2.5 6.13.24.6.56.85 1.23.9 2.31.17 4.62.42 6.92.66.56.06.9.41 1.05.93.16.57-.12 1.02-.54 1.36q-1.63 1.3-3.33 2.62c-.7.57-1.34 1.14-2.04 1.64-.5.36-.6.78-.46 1.34l1.6 6.28.17.65c.15.54-.04.98-.45 1.32-.45.37-.92.3-1.38 0l-3.55-2.35q-1.26-.8-2.5-1.6c-.31-.22-.55-.2-.85 0l-5.78 3.76c-.54.35-1.07.64-1.66.2-.61-.46-.53-1.07-.35-1.72.58-2.2 1.12-4.4 1.71-6.6.16-.56.01-.91-.44-1.27q-2.63-2.06-5.25-4.15a2 2 0 0 1-.67-.82c-.26-.74.2-1.5.99-1.59 2.28-.24 4.56-.5 6.85-.66.73-.06 1.09-.33 1.34-.98.77-2.02 1.6-4.01 2.38-6.03.23-.58.53-1.08 1.21-1.1m32.56 20.4q-.14 0-.2.03-.2.15-.36.31a38 38 0 0 1-5.29 4.09c-6.07 3.84-12.72 6.31-19.62 8.19A75 75 0 0 1 32.9 54.8c-2.6.2-5.22.27-7.95.08-1.76-.02-3.5-.39-5.27-.48.01.38.25.42.4.52 1.39.94 2.85 1.74 4.32 2.52q1.09.56.8 1.67c-.86 3.33-1.83 6.61-4.38 9.14-.4.4-.6.92-.29 1.48.32.56.85.6 1.42.5 1.08-.17 2.07-.58 3.06-1.02a35 35 0 0 0 10.5-7.28c.8-.8 1.68-1.1 2.77-1.07 3.18.07 6.34-.06 9.49-.56a36.4 36.4 0 0 0 16.02-6.41c4.5-3.28 7.6-7.5 8.63-13.08.07-.34.24-.68.03-1.05"/>
</svg>
