<svg xmlns="http://www.w3.org/2000/svg" viewBox="0 0 1024 256">
  <path fill="#23835d" d="M138.1 34.1c-3.03 0-5.54.06-7.06.23-7.35.8-16.96 2.26-21.73 3.31-25.96 5.74-49.58 21.1-62.58 40.68-14.2 21.38-16.64 42.64-7.28 63.33 7.01 15.5 16.12 25.94 33.19 38.07 5.9 4.2 5.87 4.08 2.94 12.72-3.8 11.21-7.43 17.7-12.38 22.1-2.72 2.44-3.32 5.1-1.5 6.6 2.69 2.24 14.9-.73 26.03-6.32 6.5-3.27 16.2-9.72 22.8-15.15 4.3-3.56 5.03-3.95 6.79-3.63 4.74.84 21.58 2.1 28.21 2.1 36.93 0 71.23-13.91 90.37-36.66 12.7-15.1 17.98-28.72 17.98-46.34 0-18.34-6.25-33.47-19.56-47.3-15.86-16.49-39.34-27.62-67.66-32.09-5.71-.9-19.48-1.62-28.56-1.64Zm5.35 23.66c13.67 0 13.87.01 15.5 1.41l1.65 1.42-1.3 11.1-3.74 31.94c-2.98 25.5-2.83 24.56-4.26 26-1.02 1-2.04 1.17-7.54 1.17-5.8 0-6.49-.12-7.72-1.36-1.24-1.26-1.62-3.72-5.11-33.65-2.07-17.77-3.76-33.05-3.76-33.96.01-.91.56-2.2 1.22-2.87 1.14-1.13 2.02-1.2 15.06-1.2zm-.36 85.77c2.2-.07 4.4.12 5.64.58a15.9 15.9 0 0 1 10.28 13.4c.43 5.39-.58 8.43-3.94 11.9-2.11 2.18-3.67 3.17-6.11 3.88-4.06 1.2-5.66 1.21-9.44.08-11.03-3.29-14.81-17.63-6.74-25.53 1.4-1.37 3.5-2.9 4.67-3.4 1.23-.54 3.43-.85 5.64-.91z" />
  <path fill="#7f8c8d" d="M307.22 167.8h-17.1V82.32h17.1v34.2h34.15v-34.2h17.1v85.46h-17.1v-34.15h-34.15zm79.93 24.31v-16.39l9.06.12q2.38 0 4.59-.78 2.2-.77 4.05-2.14 1.9-1.37 3.34-3.28 1.43-1.85 2.32-4.05-2.68 1.13-5.48 2.26-2.74 1.14-5.55 1.14-5.9 0-11.08-2.1-5.19-2.08-9.12-5.9-3.87-3.87-6.14-9.35-2.2-5.54-2.2-12.4v-35.28h16.2v35.28q0 3.4.96 5.96 1.01 2.5 2.68 4.24 1.67 1.67 3.88 2.5 2.26.83 4.82.83 2.5 0 4.71-1.13 2.27-1.19 3.94-3.1 1.66-1.9 2.62-4.29.95-2.44.95-5v-35.29h16.4v55.79q-.07 6.73-2.63 12.63t-7.03 10.31q-4.41 4.41-10.31 6.98-5.9 2.56-12.64 2.56zm88.38-24.32h-37.19v-16.2h37.2q1.66 0 2.85-1.2 1.2-1.2 1.2-2.86 0-1.73-1.2-2.27-1.19-.53-2.86-.53h-16.92q-4.23 0-7.93-1.61-3.7-1.61-6.44-4.35-2.74-2.8-4.35-6.5-1.55-3.7-1.55-7.93 0-4.23 1.55-7.92 1.61-3.7 4.35-6.44 2.74-2.74 6.44-4.29 3.7-1.6 7.93-1.6h32.96v16.2H458.6q-1.67 0-2.86 1.2-1.2 1.19-1.2 2.85 0 1.73 1.2 2.98 1.19 1.2 2.86 1.2h16.92q4.17 0 7.87 1.43 3.7 1.37 6.44 3.87t4.35 6.02q1.6 3.52 1.6 7.69 0 4.23-1.6 7.93-1.61 3.63-4.35 6.43-2.74 2.74-6.44 4.35-3.7 1.55-7.87 1.55zm54.3-15.61q.95.3 1.9.42.96.05 1.91.05 2.39 0 4.6-.65 2.2-.66 4.1-1.85 1.97-1.25 3.46-2.98 1.55-1.79 2.5-3.93l11.92 11.98q-2.26 3.22-5.24 5.78-2.92 2.56-6.38 4.35-3.4 1.79-7.2 2.68-3.76.96-7.76.96-6.73 0-12.7-2.5-5.9-2.51-10.36-6.98-4.41-4.47-6.98-10.61-2.56-6.2-2.56-13.59 0-7.57 2.56-13.83 2.57-6.25 6.98-10.66 4.47-4.41 10.37-6.86 5.96-2.44 12.7-2.44 3.99 0 7.8.95 3.81.96 7.21 2.74 3.46 1.8 6.44 4.41 2.98 2.57 5.24 5.79zm8.34-33.56q-1.13-.41-2.26-.53-1.08-.12-2.27-.12-3.33 0-6.31 1.25-2.93 1.2-5.13 3.46-2.15 2.26-3.4 5.48-1.25 3.16-1.25 7.15 0 .9.06 2.03.12 1.13.3 2.32.24 1.13.53 2.2.3 1.08.78 1.91zm134.46 40.41q-5.96 5.13-13.35 7.87-7.4 2.74-15.32 2.74-6.08 0-11.74-1.6-5.6-1.56-10.55-4.42-4.89-2.92-8.94-6.97t-6.97-8.94q-2.86-4.95-4.47-10.55-1.55-5.66-1.55-11.74t1.55-11.74q1.6-5.67 4.47-10.55 2.92-4.95 6.97-9t8.94-6.92q4.95-2.92 10.55-4.47 5.66-1.6 11.74-1.6 7.93 0 15.32 2.74 7.39 2.68 13.35 7.86l-9.06 14.9q-3.76-4.05-8.88-6.2-5.13-2.2-10.73-2.2-5.66 0-10.6 2.15-4.95 2.14-8.65 5.84-3.7 3.63-5.84 8.64-2.15 4.95-2.15 10.55 0 5.6 2.15 10.55 2.15 4.88 5.84 8.58 3.7 3.7 8.64 5.84 4.95 2.15 10.61 2.15 5.6 0 10.73-2.15 5.12-2.2 8.88-6.26zm67.64-23.72q0 7.15-2.56 13.35-2.56 6.14-6.97 10.67-4.41 4.47-10.37 7.1-5.9 2.56-12.7 2.56-6.73 0-12.7-2.57-5.9-2.62-10.36-7.09-4.41-4.53-6.97-10.67-2.57-6.2-2.57-13.35 0-7.27 2.57-13.47 2.56-6.2 6.97-10.67 4.47-4.53 10.37-7.09 5.96-2.56 12.7-2.56 6.79 0 12.69 2.44 5.96 2.39 10.37 6.86 4.4 4.4 6.97 10.66 2.56 6.2 2.56 13.83zm-16.39 0q0-3.93-1.3-7.1-1.26-3.2-3.46-5.47-2.2-2.33-5.19-3.52-2.92-1.25-6.26-1.25-3.33 0-6.31 1.25-2.92 1.2-5.13 3.52-2.15 2.26-3.4 5.48-1.25 3.16-1.25 7.1 0 3.69 1.25 6.85 1.25 3.15 3.4 5.48 2.2 2.32 5.13 3.7 2.98 1.3 6.31 1.3 3.34 0 6.26-1.25 2.98-1.25 5.19-3.51 2.2-2.27 3.45-5.49 1.31-3.21 1.31-7.09zm106.57 32.48h-16.21v-40.52q0-1.67-.66-3.16-.6-1.5-1.73-2.63t-2.62-1.72q-1.49-.66-3.16-.66-1.67 0-3.16.66-1.43.6-2.56 1.72-1.07 1.14-1.73 2.63-.6 1.49-.6 3.16v40.52h-16.26v-40.52q0-1.67-.66-3.16-.6-1.5-1.73-2.63t-2.62-1.72q-1.5-.66-3.16-.66-1.67 0-3.16.66-1.43.6-2.56 1.72-1.07 1.14-1.73 2.63-.6 1.49-.6 3.16v40.52h-16.27v-63.83h3.94l4.4 4.89q3.4-2.86 7.46-4.41 4.11-1.61 8.52-1.61 4.47 0 8.7 1.67 4.3 1.67 7.51 5.78 1.5-2.03 3.4-3.46 1.9-1.43 4-2.32 2.14-.9 4.4-1.25 2.27-.42 4.47-.42 5.07 0 9.48 1.9 4.47 1.91 7.75 5.25 3.33 3.28 5.24 7.75 1.9 4.47 1.9 9.54zm31.05-81.17q0 2.26-.9 4.23-.83 1.97-2.32 3.46-1.49 1.43-3.51 2.32-1.97.84-4.24.84-2.26 0-4.29-.84-1.96-.9-3.45-2.32-1.43-1.5-2.33-3.46-.83-1.97-.83-4.23 0-2.2.83-4.17.9-2.03 2.33-3.46 1.49-1.49 3.45-2.32 2.03-.9 4.3-.9 2.26 0 4.23.9 2.02.83 3.51 2.32 1.5 1.43 2.33 3.46.89 1.96.89 4.17zm-2.8 81.17h-16.4v-63.83h16.4zm68.18-51.13-11.92 11.98q-.9-2.5-2.44-4.47-1.55-2.03-3.52-3.4-1.9-1.37-4.17-2.09-2.27-.71-4.65-.71-3.34 0-6.32 1.37-2.92 1.37-5.12 3.87-2.15 2.45-3.4 5.84-1.25 3.4-1.25 7.51 0 3.34 1.25 6.26t3.4 5.13q2.2 2.2 5.12 3.45 2.98 1.25 6.32 1.25 2.38 0 4.59-.65 2.2-.66 4.11-1.85 1.97-1.25 3.46-2.98 1.55-1.79 2.5-3.93l11.92 11.98q-2.26 3.22-5.24 5.78-2.92 2.56-6.38 4.35-3.4 1.79-7.21 2.68-3.76.96-7.75.96-6.73 0-12.7-2.5-5.9-2.57-10.36-6.98-4.42-4.41-6.98-10.31-2.56-5.9-2.56-12.64 0-7.33 2.56-13.7 2.56-6.38 6.98-11.1 4.47-4.76 10.37-7.5 5.96-2.74 12.69-2.74 4 0 7.8 1.01 3.88 1.01 7.34 2.98 3.51 1.9 6.44 4.71 2.98 2.8 5.12 6.44zm42.97 51.13h-37.19v-16.2h37.2q1.66 0 2.85-1.2 1.2-1.2 1.2-2.86 0-1.73-1.2-2.27-1.19-.53-2.86-.53h-16.92q-4.24 0-7.93-1.61-3.7-1.61-6.44-4.35-2.74-2.8-4.35-6.5-1.55-3.7-1.55-7.93 0-4.23 1.55-7.92 1.61-3.7 4.35-6.44 2.74-2.74 6.44-4.29 3.7-1.6 7.93-1.6h32.95v16.2h-32.95q-1.67 0-2.86 1.2-1.2 1.19-1.2 2.85 0 1.73 1.2 2.98 1.19 1.2 2.86 1.2h16.92q4.17 0 7.87 1.43 3.7 1.37 6.44 3.87t4.35 6.02q1.6 3.52 1.6 7.69 0 4.23-1.6 7.93-1.61 3.63-4.35 6.43-2.75 2.74-6.44 4.35-3.7 1.55-7.87 1.55z" />
</svg>
